<?xml version="1.0" standalone="no"?>
<!DOCTYPE svg PUBLIC "-//W3C//DTD SVG 20010904//EN"
 "http://www.w3.org/TR/2001/REC-SVG-20010904/DTD/svg10.dtd">
<svg version="1.0" xmlns="http://www.w3.org/2000/svg"
 width="200" height="200" viewBox="0 0 1100.000000 909.000000"
 preserveAspectRatio="xMidYMid meet">

<g transform="translate(0.000000,909.000000) scale(0.100000,-0.100000)"
fill="#603DB0" stroke="none">
<path d="M5662 8294 c-5 -10 -33 -75 -62 -144 -28 -69 -55 -128 -59 -132 -3
-4 -74 -13 -156 -19 -83 -7 -153 -15 -158 -19 -4 -3 47 -53 113 -109 66 -57
120 -106 120 -109 0 -2 -16 -72 -35 -155 -20 -82 -33 -152 -31 -154 3 -3 66
32 141 77 l136 82 136 -81 c75 -45 138 -80 140 -77 4 4 -28 151 -62 287 -5 21
9 37 115 127 66 57 118 107 115 112 -3 4 -55 11 -117 15 -62 4 -133 10 -156
14 l-44 6 -63 149 c-52 126 -64 146 -73 130z"/>
<path d="M7190 8023 c-35 -82 -64 -149 -65 -150 -1 -2 -73 -8 -160 -15 -88 -7
-159 -15 -160 -19 0 -3 53 -51 118 -108 64 -56 117 -108 117 -116 0 -8 -13
-71 -30 -142 -16 -70 -32 -138 -35 -150 -4 -19 17 -9 135 62 78 47 143 85 145
85 2 0 68 -38 145 -85 95 -57 140 -79 136 -68 -13 44 -66 282 -66 296 0 9 54
64 121 122 67 59 114 107 107 109 -7 3 -56 7 -108 10 -52 4 -120 9 -151 12
l-56 6 -62 149 c-35 82 -64 149 -66 149 -2 0 -31 -66 -65 -147z"/>
<path d="M4024 7982 c-34 -81 -68 -150 -75 -154 -8 -4 -84 -13 -169 -20 l-154
-13 126 -109 c84 -72 124 -114 122 -125 -2 -9 -19 -80 -38 -159 -22 -95 -30
-142 -21 -139 6 3 70 41 142 85 l130 80 137 -85 c76 -46 140 -83 142 -81 2 2
-12 70 -31 151 -19 81 -35 153 -34 160 0 6 54 57 119 112 65 55 119 103 119
108 1 4 -14 7 -31 8 -18 0 -91 6 -162 12 l-129 12 -64 150 c-35 82 -65 150
-66 151 -1 1 -30 -64 -63 -144z"/>
<path d="M5445 7054 c-606 -65 -1172 -364 -1557 -824 -383 -457 -576 -1048
-537 -1643 76 -1155 967 -2066 2119 -2168 854 -75 1680 327 2151 1048 180 276
304 607 355 948 24 164 24 474 0 640 -152 1021 -910 1798 -1931 1977 -81 14
-170 20 -335 22 -124 2 -243 2 -265 0z m490 -239 c603 -75 1154 -419 1488
-928 305 -465 413 -1026 302 -1572 -177 -875 -905 -1551 -1788 -1660 -140 -17
-381 -19 -512 -5 -372 43 -767 208 -1060 444 -424 342 -689 803 -771 1346 -37
238 -20 558 41 800 132 519 444 958 890 1253 256 169 609 294 920 327 123 13
367 10 490 -5z"/>
<path d="M6258 5007 c-232 -189 -585 -474 -783 -635 -197 -161 -362 -289 -365
-284 -4 4 -118 148 -254 319 -136 172 -251 315 -257 318 -9 6 -174 -122 -174
-135 0 -3 140 -183 310 -398 271 -342 312 -389 325 -377 12 13 17 12 36 -6
l23 -21 633 513 c348 282 732 594 853 692 121 98 221 182 223 186 3 10 -126
171 -137 171 -5 0 -200 -154 -433 -343z"/>
<path d="M6410 790 l0 -430 65 0 65 0 0 430 0 430 -65 0 -65 0 0 -430z"/>
<path d="M7771 1198 c-51 -27 -47 -108 6 -129 77 -29 146 50 96 110 -23 26
-71 35 -102 19z"/>
<path d="M1741 1165 c-124 -35 -230 -126 -273 -235 -19 -46 -23 -74 -23 -180
0 -117 2 -129 29 -188 36 -79 113 -152 194 -183 77 -31 251 -33 327 -3 l50 20
3 58 c3 53 1 58 -15 51 -58 -24 -115 -35 -183 -35 -168 0 -272 106 -273 279
-1 100 23 169 76 224 59 60 107 81 199 85 72 4 105 -2 181 -33 15 -6 17 0 17
57 l0 65 -37 12 c-63 20 -211 23 -272 6z"/>
<path d="M9947 1048 c2 -68 6 -196 9 -285 l6 -163 48 0 c45 0 48 1 54 31 3 17
6 146 6 285 l0 254 -62 0 -63 0 2 -122z"/>
<path d="M5415 1091 l-60 -16 -3 -68 -3 -67 -49 0 -50 0 0 -50 0 -50 50 0 50
0 0 -192 c0 -174 2 -196 20 -225 10 -18 30 -39 44 -48 33 -22 124 -30 170 -15
34 11 36 14 36 56 l0 45 -43 -6 c-34 -5 -47 -3 -70 15 l-27 21 0 175 0 174 70
0 70 0 0 50 0 50 -70 0 -69 0 -3 83 -3 84 -60 -16z"/>
<path d="M7425 1090 l-60 -17 -3 -66 -3 -67 -49 0 -50 0 0 -50 0 -50 50 0 50
0 0 -185 c0 -202 7 -235 54 -273 34 -26 105 -37 165 -26 l46 9 3 53 c3 52 3
53 -19 42 -29 -16 -85 -4 -104 23 -12 17 -15 55 -15 189 l0 168 70 0 70 0 0
50 0 50 -70 0 -69 0 -3 83 -3 84 -60 -17z"/>
<path d="M2377 940 c-148 -38 -224 -148 -215 -315 3 -68 9 -91 34 -136 70
-125 244 -174 391 -109 61 27 98 62 131 125 24 44 27 61 27 150 0 89 -3 106
-27 151 -30 57 -72 97 -127 120 -44 19 -163 27 -214 14z m167 -118 c47 -28 71
-85 71 -172 0 -97 -23 -146 -86 -178 -34 -18 -54 -22 -88 -18 -90 12 -139 67
-148 167 -13 142 65 238 182 223 22 -3 53 -13 69 -22z"/>
<path d="M3135 935 c-22 -8 -57 -32 -77 -54 l-38 -40 0 49 0 50 -65 0 -65 0 0
-290 0 -290 65 0 65 0 0 180 c0 201 9 244 62 281 36 26 95 34 127 17 14 -7 34
-29 45 -48 19 -31 21 -55 24 -232 l4 -198 65 0 65 0 -4 218 c-4 226 -11 265
-56 316 -45 50 -140 68 -217 41z"/>
<path d="M3720 941 c-78 -24 -117 -60 -157 -146 -24 -52 -27 -72 -27 -155 0
-78 4 -104 23 -147 44 -99 132 -152 233 -140 59 7 102 29 145 75 l35 37 -6
-72 c-9 -110 -33 -155 -101 -191 -46 -25 -168 -22 -229 6 -27 12 -50 22 -53
22 -2 0 -3 -25 -1 -57 3 -56 3 -56 43 -70 68 -24 182 -28 255 -9 86 22 138 59
175 126 l30 55 3 333 3 332 -60 0 -61 0 0 -41 0 -41 -39 35 c-56 51 -139 69
-211 48z m166 -112 c65 -31 88 -87 81 -190 -6 -99 -31 -143 -95 -171 -128 -57
-230 58 -202 229 11 68 51 122 101 140 48 17 67 16 115 -8z"/>
<path d="M4495 931 c-35 -21 -57 -45 -78 -86 l-16 -30 -1 63 0 62 -65 0 -65 0
0 -290 0 -290 64 0 64 0 4 178 c2 150 6 183 22 216 28 56 69 78 134 72 l52 -5
0 59 c0 44 -4 59 -16 64 -29 11 -69 6 -99 -13z"/>
<path d="M4835 940 c-22 -5 -57 -16 -77 -24 -37 -16 -38 -17 -38 -70 l0 -53
56 29 c61 30 155 39 195 18 22 -12 49 -60 49 -89 0 -21 -6 -23 -135 -41 -44
-7 -98 -20 -120 -29 -77 -34 -114 -103 -102 -193 19 -138 210 -185 318 -77
l39 39 0 -45 0 -45 66 0 67 0 -5 223 c-5 236 -9 258 -61 315 -40 43 -152 62
-252 42z m185 -341 c0 -84 -58 -149 -133 -149 -63 0 -107 35 -107 85 0 29 23
64 50 75 31 13 109 27 158 29 31 1 32 0 32 -40z"/>
<path d="M6845 939 c-22 -5 -57 -16 -77 -26 -37 -16 -38 -17 -38 -69 l0 -53
56 30 c45 23 68 29 121 29 58 0 67 -3 94 -29 19 -20 29 -40 29 -60 0 -35 3
-33 -130 -51 -90 -12 -142 -30 -174 -58 -27 -24 -56 -91 -56 -132 0 -49 38
-121 76 -142 77 -44 184 -31 246 32 l38 38 0 -44 0 -44 65 0 65 0 0 203 c0
228 -10 284 -58 330 -52 50 -157 68 -257 46z m185 -344 c0 -87 -55 -145 -136
-145 -95 0 -137 105 -62 154 24 16 105 33 166 35 32 1 32 0 32 -44z"/>
<path d="M8218 937 c-104 -30 -176 -108 -199 -215 -30 -149 35 -293 158 -348
58 -26 204 -25 263 3 60 28 108 77 138 142 34 74 35 192 3 267 -26 61 -81 117
-135 139 -53 23 -169 28 -228 12z m173 -107 c10 -6 31 -27 46 -47 26 -34 28
-43 28 -134 0 -83 -3 -102 -21 -125 -39 -52 -70 -69 -133 -69 -106 0 -164 70
-164 195 0 69 19 124 53 155 45 41 138 53 191 25z"/>
<path d="M8990 937 c-19 -6 -54 -30 -77 -54 l-43 -42 0 49 0 50 -65 0 -65 0 0
-290 0 -290 65 0 65 0 0 173 c0 194 7 232 51 275 58 56 137 51 183 -11 19 -26
21 -44 24 -233 l3 -204 66 0 65 0 -4 223 c-3 204 -5 225 -25 262 -26 49 -48
70 -96 90 -42 17 -96 18 -147 2z"/>
<path d="M9521 931 c-29 -10 -69 -35 -89 -54 -30 -30 -36 -44 -39 -89 -7 -89
26 -125 159 -180 83 -33 118 -61 118 -94 0 -65 -141 -89 -234 -39 l-46 24 0
-58 c0 -58 1 -59 33 -71 89 -31 234 -20 298 23 54 37 74 72 74 131 -1 74 -27
107 -123 151 -42 20 -93 44 -112 53 -52 25 -55 88 -5 110 36 17 129 15 172 -3
19 -8 37 -15 39 -15 2 0 4 23 4 50 0 46 -3 51 -27 61 -55 21 -164 21 -222 0z"/>
<path d="M5722 718 c3 -205 5 -226 25 -263 27 -51 52 -73 100 -91 82 -29 159
-11 226 54 l37 36 0 -47 0 -47 65 0 65 0 0 290 0 290 -64 0 -64 0 -4 -192 c-3
-171 -5 -197 -23 -227 -40 -67 -136 -90 -187 -44 -42 37 -48 72 -48 273 l0
190 -66 0 -66 0 4 -222z"/>
<path d="M7740 650 l0 -290 65 0 65 0 0 290 0 290 -65 0 -65 0 0 -290z"/>
<path d="M9972 484 c-35 -24 -46 -51 -32 -84 20 -49 80 -64 124 -29 73 57 -15
167 -92 113z"/>
</g>
</svg>
